<svg xmlns="http://www.w3.org/2000/svg" viewBox="330.9 274.1 180 49.4"><path fill="#EF4123" d="M343.7 278.8l-11.6 23.9 16.1 18.4h22.2l11.1-24.3-14.9-20.4z"/><path d="M402.4 320.9l-1.9-4.5h-10.4l-1.9 4.5h-4l10.8-24.1h.8l10.7 24.1h-4.1zm-7.2-16.8l-4 9.4h8.1l-4-9.4h-.1zm17.5 9.5v7.4H409v-16h2.8l.6 2.7h.1c1-2.1 2.7-3.1 5-3.1.7 0 1.2.1 1.7.3v3.5c-.7-.3-1.4-.4-2.1-.4-2.6-.1-4.4 2.1-4.4 5.6zm13.5-13.7h.8v5.1h4.4v2.9H427v7.7c0 1.8.6 2.7 2.2 2.7.9 0 1.9-.3 2.8-.9v3c-1.1.7-2.4 1.1-3.8 1.1-3.8 0-5-2.1-5-6v-7.4h-2.6v-2.2l2.9-.8 2.7-5.2zm21 6.9c1.4 1.5 2.1 3.5 2.1 6v.9h-12c.2 3.1 2.3 4.7 5.3 4.7 2.1 0 4.1-.6 5.9-1.9v3.1c-1.7 1.2-3.8 1.8-6.2 1.8-2.8 0-5-.8-6.5-2.3s-2.3-3.6-2.3-6.1c0-2.4.8-4.4 2.3-6 1.5-1.6 3.5-2.4 5.8-2.4 2.4-.1 4.2.6 5.6 2.2zm-9.8 4.4h8.4c-.4-2.4-1.9-3.9-4.1-3.9-2.3 0-3.9 1.6-4.3 3.9zm27.1-6v3.2c-1-.6-2.2-.9-3.5-.9-3.1 0-5.3 2.1-5.3 5.5 0 1.6.5 2.9 1.4 3.8 1 .9 2.2 1.4 3.8 1.4 1.6 0 3-.4 4.2-1.2v3.1c-1.3.7-3 1.1-5.1 1.1-2.6 0-4.7-.8-6.1-2.3s-2.2-3.5-2.2-5.9c0-2.5.8-4.5 2.4-6.2 1.6-1.6 3.7-2.4 6.2-2.4 1.7.1 3.1.3 4.2.8z"/><path fill="#EF4123" d="M476 307.7l7-8.8v-.1h-10.1v-1.7h13.6v.5l-7 8.5c4.5 0 7.3 2.8 7.3 7.4 0 2.3-.8 4.2-2.4 5.6-1.5 1.4-3.5 2.1-5.7 2.1-2.7 0-5-.7-6.8-2.1v-2.3c1.9 1.8 4.2 2.6 6.8 2.6 1.8 0 3.3-.6 4.3-1.7 1.1-1.1 1.7-2.5 1.7-4.2 0-3.9-2.5-5.8-6.1-5.8-.7 0-1.5.1-2.3.3l-.3-.3zm15.5 13.2v-23.8h7.6c3.3 0 6 1.1 7.9 3.2 2 2.1 3 5 3 8.6 0 3.6-1 6.5-2.8 8.7s-4.5 3.3-7.7 3.3h-8zm14.2-19.1c-1.5-1.9-3.7-2.8-6.6-2.8h-5.6v20h5.8c5.7 0 8.7-4 8.7-10 0-2.9-.8-5.3-2.3-7.2z"/><path fill="#DA4128" d="M366.6 276.4l-22.9 2.4 4.3 11.6z"/><path fill="#D1494A" d="M366.6 276.4l9.8 24.2 5.1-3.8z"/><path fill="#F37860" d="M376.4 300.6L348 290.4l18.6-14z"/><path fill="#C42127" d="M376.4 300.6l-6 20.5 11.1-24.3z"/><path fill="#EF4123" d="M376.4 300.6l-25.9 15.9 19.9 4.6zm-25.9 15.9l-2.5-26.1-15.9 12.3z"/><path fill="#AA2024" d="M348.2 321.1h22.2l-19.9-4.6z"/><path fill="#C53928" d="M332.1 302.7l11.6-23.9 4.3 11.6z"/><path fill="#891A1C" d="M350.5 316.5l-18.4-13.8 16.1 18.4z"/><path fill="#F8AB98" d="M348 290.4l28.4 10.2-25.9 15.9z"/></svg>